<svg width="199" height="53" viewBox="0 0 199 53" fill="none" xmlns="http://www.w3.org/2000/svg">
<path d="M2.4603 9.00745C2.4603 4.58918 6.04202 1.00746 10.4603 1.00746H50.5042C54.9225 1.00746 58.5042 4.58918 58.5042 9.00746V40.5027C58.5042 44.9209 54.9225 48.5026 50.5042 48.5026H10.4603C6.04201 48.5026 2.4603 44.9209 2.4603 40.5026V9.00745Z" fill="#2CB1BC"/>
<g filter="url(#filter0_d_6_21)">
<path d="M8.98438 37.791V9.35347H15.4688V20.5253L24.375 9.35347H31.1914L15.4688 28.2988V37.791H8.98438ZM24.8047 37.791L15.9375 24.08L19.9414 19.2949L32.3438 37.791H24.8047ZM31.9336 28.8652V27.9472H37.9492V29.3144C37.9492 30.8509 38.2227 31.9576 38.7695 32.6347C39.3164 33.2988 40.1562 33.6308 41.2891 33.6308C42.3698 33.6308 43.1966 33.2793 43.7695 32.5761C44.3424 31.86 44.6289 30.636 44.6289 28.9043V9.35347H51.1133V28.2011C51.1133 31.4173 50.293 33.8977 48.6523 35.6425C47.0117 37.3873 44.6354 38.2597 41.5234 38.2597C38.4766 38.2597 36.1133 37.498 34.4336 35.9746C32.7669 34.4381 31.9336 32.0683 31.9336 28.8652Z" fill="white"/>
</g>
<path d="M87.7346 15.5101L81.3506 22.2541L88.5266 32.6941H82.9586L78.3266 25.4941L76.4786 27.3901V32.6941H71.9906V15.5101H76.4786V19.8061V21.0781V22.2541C77.1026 21.3901 77.6306 20.7101 78.0626 20.2141L82.1906 15.5101H87.7346ZM100.799 20.1661L100.775 23.5261C100.183 23.3501 99.6225 23.2621 99.0945 23.2621C97.0145 23.2621 95.9745 24.5981 95.9745 27.2701V32.6941H91.8945V20.2381H95.8305V22.3741C96.3105 20.7261 97.6465 19.9021 99.8385 19.9021C100.095 19.9021 100.415 19.9901 100.799 20.1661ZM108.921 20.2381V32.6941H104.841V20.2381H108.921ZM106.881 15.0541C107.393 15.0541 107.833 15.2381 108.201 15.6061C108.569 15.9581 108.753 16.3981 108.753 16.9261C108.753 17.4381 108.569 17.8781 108.201 18.2461C107.833 18.6141 107.393 18.7981 106.881 18.7981C106.353 18.7981 105.905 18.6141 105.537 18.2461C105.185 17.8781 105.009 17.4381 105.009 16.9261C105.009 16.3981 105.185 15.9581 105.537 15.6061C105.905 15.2381 106.353 15.0541 106.881 15.0541ZM124.812 23.7421H121.044C120.98 23.2621 120.788 22.9261 120.468 22.7341C120.164 22.5261 119.66 22.4221 118.956 22.4221C117.868 22.4221 117.324 22.7581 117.324 23.4301C117.324 23.7821 117.492 24.0381 117.828 24.1981C118.18 24.3581 118.98 24.5581 120.228 24.7981C122.036 25.1501 123.3 25.6221 124.02 26.2141C124.756 26.7901 125.124 27.6301 125.124 28.7341C125.124 30.1741 124.524 31.2781 123.324 32.0461C122.268 32.7021 120.868 33.0301 119.124 33.0301C116.916 33.0301 115.284 32.5101 114.228 31.4701C113.716 30.9581 113.38 30.5581 113.22 30.2701C113.076 29.9661 112.98 29.4781 112.932 28.8061H116.94C117.004 29.3821 117.196 29.7901 117.516 30.0301C117.852 30.2541 118.404 30.3661 119.172 30.3661C120.452 30.3661 121.092 29.9421 121.092 29.0941C121.092 28.7261 120.94 28.4621 120.636 28.3021C120.332 28.1261 119.612 27.9101 118.476 27.6541C116.7 27.2701 115.492 26.9021 114.852 26.5501C113.828 25.9741 113.316 25.0461 113.316 23.7661C113.316 22.5181 113.812 21.5661 114.804 20.9101C115.796 20.2381 117.204 19.9021 119.028 19.9021C121.284 19.9021 122.892 20.4381 123.852 21.5101C124.428 22.1341 124.748 22.8781 124.812 23.7421ZM133.69 15.5101V21.8701C134.666 20.5581 135.978 19.9021 137.626 19.9021C139.306 19.9021 140.538 20.4621 141.322 21.5821C141.818 22.3181 142.066 23.4061 142.066 24.8461V32.6941H137.986V25.5901C137.986 24.7741 137.858 24.2061 137.602 23.8861C137.25 23.4541 136.722 23.2381 136.018 23.2381C135.106 23.2381 134.442 23.6061 134.026 24.3421C133.802 24.7261 133.69 25.4301 133.69 26.4541V32.6941H129.61V15.5101H133.69ZM157.926 15.5101V27.0061C157.926 28.8621 157.518 30.2781 156.702 31.2541C155.63 32.5021 154.046 33.1261 151.95 33.1261C149.438 33.1261 147.686 32.2781 146.694 30.5821C146.166 29.6701 145.902 28.3501 145.902 26.6221C145.902 26.4141 145.902 26.1661 145.902 25.8781H150.006V26.3341C150.006 27.5341 150.102 28.3101 150.294 28.6621C150.566 29.1741 151.07 29.4301 151.806 29.4301C152.398 29.4301 152.814 29.2621 153.054 28.9261C153.31 28.5901 153.438 28.0141 153.438 27.1981V15.5101H157.926ZM168.931 33.0301C166.835 33.0301 165.171 32.3421 163.939 30.9661C162.867 29.7661 162.331 28.2621 162.331 26.4541C162.331 24.3741 163.019 22.7181 164.395 21.4861C165.595 20.4301 167.099 19.9021 168.907 19.9021C171.019 19.9021 172.691 20.5821 173.923 21.9421C174.979 23.1101 175.507 24.6061 175.507 26.4301C175.507 28.5261 174.819 30.1901 173.443 31.4221C172.243 32.4941 170.739 33.0301 168.931 33.0301ZM168.883 22.8781C168.115 22.8781 167.523 23.1901 167.107 23.8141C166.691 24.4381 166.483 25.3181 166.483 26.4541C166.483 28.8541 167.299 30.0541 168.931 30.0541C170.563 30.0541 171.379 28.8461 171.379 26.4301C171.379 24.0621 170.547 22.8781 168.883 22.8781ZM184.109 15.5101V21.6781C185.085 20.4621 186.301 19.8541 187.757 19.8541C189.469 19.8541 190.813 20.5261 191.789 21.8701C192.637 23.0221 193.061 24.5021 193.061 26.3101C193.061 28.4861 192.485 30.1901 191.333 31.4221C190.325 32.4941 189.037 33.0301 187.469 33.0301C186.029 33.0301 184.861 32.4301 183.965 31.2301V32.6941H180.029V15.5101H184.109ZM186.461 23.0701C185.709 23.0701 185.109 23.3661 184.661 23.9581C184.213 24.5501 183.989 25.3421 183.989 26.3341C183.989 27.3741 184.205 28.1981 184.637 28.8061C185.085 29.3981 185.701 29.6941 186.485 29.6941C187.237 29.6941 187.829 29.3981 188.261 28.8061C188.709 28.1981 188.933 27.3741 188.933 26.3341C188.933 25.3421 188.709 24.5501 188.261 23.9581C187.813 23.3661 187.213 23.0701 186.461 23.0701Z" fill="#2CB1BC"/>
<defs>
<filter id="filter0_d_6_21" x="4.98438" y="9.35347" width="50.1289" height="36.9062" filterUnits="userSpaceOnUse" color-interpolation-filters="sRGB">
<feFlood flood-opacity="0" result="BackgroundImageFix"/>
<feColorMatrix in="SourceAlpha" type="matrix" values="0 0 0 0 0 0 0 0 0 0 0 0 0 0 0 0 0 0 127 0" result="hardAlpha"/>
<feOffset dy="4"/>
<feGaussianBlur stdDeviation="2"/>
<feComposite in2="hardAlpha" operator="out"/>
<feColorMatrix type="matrix" values="0 0 0 0 0 0 0 0 0 0 0 0 0 0 0 0 0 0 0.25 0"/>
<feBlend mode="normal" in2="BackgroundImageFix" result="effect1_dropShadow_6_21"/>
<feBlend mode="normal" in="SourceGraphic" in2="effect1_dropShadow_6_21" result="shape"/>
</filter>
</defs>
</svg>
